# xmcd
#
# Track frame offsets:
#	150
#	16504
#	30620
#	45019
#	63339
#	80560
#	96078
#	113082
#	126583
#	142925
#	159932
#	178323
#	192003
#	210802
#	228292
#	242656
#	263034
#	280255
#
# Disc length: 3928 seconds
#
# Revision: 0
# Processed by: cddbd v1.5.2PL0 Copyright (c) Steve Scherf et al.
# Submitted via: audiograbber 1.82.02
#
DISCID=de0f5612
DTITLE=Various Artist - Country Radio - July 2012
DYEAR=2012
DGENRE=Country
TTITLE0=Lee Brice - Hard To Love
TTITLE1=Blake Shelton - Over
TTITLE2=Jake Owen - One That Got Away, The
TTITLE3=Rascal Flatts - Come Wake Me Up
TTITLE4=Jessie James - Military Man
TTITLE5=Mavericks - Born To Be Blue
TTITLE6=Rich O'Toole - Drunk Girl
TTITLE7=Gwen Sebastian - Met Him In A Motel Room
TTITLE8=Casey James - Crying On A Suitcase
TTITLE9=Jason Sturgeon - Time Bomb (PO Clean Edit)
TTITLE10=Kenny Chesney - Come Over
TTITLE11=Bucky Covington - I Wanna Be That Feeling
TTITLE12=Paul Thorn - Take My Love With You
TTITLE13=Rodney Atkins - Just Wanna Rock 'N Roll
TTITLE14=Leftover Salmon - Gulf Of Mexico
TTITLE15=Chelle Rose - I Need You
TTITLE16=Miranda Lambert - Over You (Heart and Soul Mix)
TTITLE17=Kenny Chesney and Tim McGraw - Feel Like A Rock Star (PO Clean Edit)
EXTD=
EXTT0=
EXTT1=
EXTT2=
EXTT3=
EXTT4=
EXTT5=
EXTT6=
EXTT7=
EXTT8=
EXTT9=
EXTT10=
EXTT11=
EXTT12=
EXTT13=
EXTT14=
EXTT15=
EXTT16=
EXTT17=
PLAYORDER=
